<svg width="24" height="24" viewBox="0 0 24 24" fill="none" xmlns="http://www.w3.org/2000/svg">
<g clip-path="url(#clip0_259_778)">
<path d="M8.5 8C8.5 7.44772 8.94771 7 9.5 7H16.5C17.0523 7 17.5 7.44772 17.5 8C17.5 8.55229 17.0523 9 16.5 9H9.5C8.94771 9 8.5 8.55229 8.5 8Z" fill="#1F1F1F"/>
<path d="M9.5 11C8.94771 11 8.5 11.4477 8.5 12C8.5 12.5523 8.94771 13 9.5 13H16.5C17.0523 13 17.5 12.5523 17.5 12C17.5 11.4477 17.0523 11 16.5 11H9.5Z" fill="#1F1F1F"/>
<path d="M8.5 16C8.5 15.4477 8.94771 15 9.5 15H14C14.5523 15 15 15.4477 15 16C15 16.5523 14.5523 17 14 17H9.5C8.94771 17 8.5 16.5523 8.5 16Z" fill="#1F1F1F"/>
<path fill-rule="evenodd" clip-rule="evenodd" d="M2.54087 18.8029C2.57937 18.988 2.62995 19.1677 2.69161 19.3413L2.72339 19.5214C2.97637 20.955 4.22202 22 5.67774 22H6.34132C6.38586 22.0008 6.43052 22.0008 6.4753 22H7.00004C7.11579 22 7.22695 21.9804 7.33036 21.9442C7.5481 21.9809 7.77181 22 8 22H18C20.2091 22 22 20.2091 22 18V6C22 3.79086 20.2091 2 18 2H17.002C16.1705 0.547843 14.4871 -0.283934 12.7634 0.087977L12.7613 0.0884248L3.12561 2.18867C0.978099 2.65991 -0.361387 4.80533 0.0860564 6.95873L2.54087 18.8029ZM8 4L16.3368 4.00031C16.3549 4.0008 16.3729 4.0008 16.391 4.00031L17.9991 4.00037C19.1035 4.00037 19.9989 4.8957 19.9989 6.00015V17.9993C19.9989 19.1037 19.1035 19.9991 17.9991 19.9991L8 20C7.83597 20 7.67656 19.9803 7.52401 19.943C7.49215 19.9326 7.4597 19.9238 7.42674 19.9166C6.60154 19.6702 6 18.9053 6 18V6C6 4.89543 6.89543 4 8 4ZM4.40699 4.24003L3.0744 4.54756C2.55598 4.66719 2.22201 5.17179 2.31447 5.69573L4 15.2471V6C4 5.36847 4.14635 4.77113 4.40699 4.24003Z" fill="#1F1F1F"/>
</g>
<defs>
<clipPath id="clip0_259_778">
<rect width="24" height="24" fill="white"/>
</clipPath>
</defs>
</svg>
