<svg width="24" height="24" viewBox="0 0 24 24" fill="none" xmlns="http://www.w3.org/2000/svg">
<path fill-rule="evenodd" clip-rule="evenodd" d="M1 8C1 5.23858 3.23858 3 6 3H18C20.7614 3 23 5.23858 23 8V16C23 18.7614 20.7614 21 18 21H6C3.23858 21 1 18.7614 1 16V8ZM3.33068 6.6294C3.11931 7.04023 3 7.50618 3 8V16C3 17.6569 4.34315 19 6 19H18C19.6569 19 21 17.6569 21 16V8C21 7.50618 20.8807 7.04023 20.6693 6.6294C20.3521 6.01292 19.8277 5.52056 19.188 5.24441C18.8237 5.08714 18.422 5 18 5H6C5.57798 5 5.1763 5.08714 4.812 5.24441C4.17233 5.52056 3.64786 6.01292 3.33068 6.6294Z" fill="#1F1F1F"/>
<path d="M20.6687 6.62937L12.6068 12.7943C12.2483 13.0685 11.7505 13.0685 11.3919 12.7943L3.33008 6.62937C3.64726 6.01289 4.17173 5.52053 4.81139 5.24438L11.9994 10.7411L19.1874 5.24438C19.8271 5.52053 20.3515 6.01289 20.6687 6.62937Z" fill="#C5BEAC"/>
</svg>
