<svg width="24" height="24" viewBox="0 0 24 24" fill="none" xmlns="http://www.w3.org/2000/svg">
<path d="M4.5 15C4.5 15.8284 5.17157 16.5 6 16.5C6.82843 16.5 7.5 15.8283 7.5 14.9999C7.5 14.1715 6.82843 13.4999 6 13.4999C5.17157 13.4999 4.5 14.1716 4.5 15Z" fill="#1F1F1F"/>
<path d="M10.5 15C10.5 15.8284 11.1716 16.5 12 16.5C12.8284 16.5 13.5 15.8283 13.5 14.9999C13.5 14.1715 12.8284 13.4999 12 13.4999C11.1716 13.4999 10.5 14.1716 10.5 15Z" fill="#1F1F1F"/>
<path d="M18 16.5C17.1716 16.5 16.5 15.8284 16.5 15C16.5 14.1716 17.1716 13.4999 18 13.4999C18.8284 13.4999 19.5 14.1715 19.5 14.9999C19.5 15.8283 18.8284 16.5 18 16.5Z" fill="#1F1F1F"/>
<path d="M4.5 9C4.5 9.82843 5.17157 10.5 6 10.5C6.82843 10.5 7.5 9.82833 7.5 8.9999C7.5 8.17147 6.82843 7.4999 6 7.4999C5.17157 7.4999 4.5 8.17157 4.5 9Z" fill="#1F1F1F"/>
<path d="M12 10.5C11.1716 10.5 10.5 9.82843 10.5 9C10.5 8.17157 11.1716 7.4999 12 7.4999C12.8284 7.4999 13.5 8.17147 13.5 8.9999C13.5 9.82833 12.8284 10.5 12 10.5Z" fill="#1F1F1F"/>
<path d="M16.5 9C16.5 9.82843 17.1716 10.5 18 10.5C18.8284 10.5 19.5 9.82833 19.5 8.9999C19.5 8.17147 18.8284 7.4999 18 7.4999C17.1716 7.4999 16.5 8.17157 16.5 9Z" fill="#1F1F1F"/>
</svg>
